<svg width="100" height="120" viewBox="0 0 100 120" fill="none" xmlns="http://www.w3.org/2000/svg">
<rect width="100" height="120" fill="#020E35"/>
<rect y="114" width="100" height="6" fill="url(#paint0_linear_15_302)"/>
<path d="M33.6265 47.9807C33.6265 53.137 37.8158 57.3251 42.9651 57.3251C48.1161 57.3251 52.3066 53.1362 52.3066 47.9876V45.6042C51.3506 46.2214 50.2135 46.5813 48.9932 46.5813H33.3837C33.5381 47.0156 33.6242 47.4818 33.6265 47.9674V47.9807H33.6265Z" fill="white"/>
<path d="M71.5933 33.0251H69.7866V35.8376H71.5933C72.3702 35.8376 73 35.208 73 34.4314C73 33.6548 72.3702 33.0251 71.5933 33.0251Z" fill="white"/>
<path d="M61.0467 27C57.7684 27 55.12 29.6521 55.12 32.925V47.9875C55.12 54.7103 49.6779 60.1375 42.9652 60.1375C36.2437 60.1375 30.8133 54.6997 30.8133 47.989V47.9875C30.8133 47.9853 30.8133 47.983 30.8133 47.9807C30.8096 47.2072 30.1812 46.5813 29.4066 46.5813C28.6298 46.5813 28 47.2109 28 47.9875C28 59.9109 36.9171 67.4688 46.7333 67.4688C57.9274 67.4688 66.9734 58.4114 66.9734 47.2344V32.925C66.9733 29.6473 64.3197 27 61.0467 27Z" fill="white"/>
<path d="M54.2667 72.1876H49.5466V70.1123C48.6202 70.2241 47.6812 70.2812 46.7334 70.2812V72.1876C45.9565 72.1876 45.3267 72.8172 45.3267 73.5938C45.3267 74.3704 45.9565 75.0001 46.7334 75.0001H54.2667C55.0435 75.0001 55.6733 74.3704 55.6733 73.5938C55.6733 72.8172 55.0435 72.1876 54.2667 72.1876Z" fill="white"/>
<defs>
<linearGradient id="paint0_linear_15_302" x1="100" y1="114" x2="0" y2="114" gradientUnits="userSpaceOnUse">
<stop stop-color="#8C32F0"/>
<stop offset="1" stop-color="#E73587"/>
</linearGradient>
</defs>
</svg>
